<svg width="320" height="149" viewBox="0 0 320 149" fill="none" xmlns="http://www.w3.org/2000/svg">
<g filter="url(#filter0_d)">
<path d="M59.599 94H52.229V72.761L34.072 47.1H42.648L56.048 66.061L69.448 47.1H77.756L59.599 72.56V94ZM109.233 83.012C112.405 86.3173 116.291 87.97 120.891 87.97C125.492 87.97 129.378 86.3173 132.549 83.012C135.721 79.6173 137.306 75.4633 137.306 70.55C137.306 65.592 135.721 61.4603 132.549 58.155C129.378 54.805 125.492 53.13 120.891 53.13C116.291 53.13 112.405 54.805 109.233 58.155C106.107 61.4157 104.543 65.5473 104.543 70.55C104.543 75.5527 106.107 79.7067 109.233 83.012ZM138.043 87.903C133.487 92.5483 127.77 94.871 120.891 94.871C114.013 94.871 108.295 92.5483 103.739 87.903C99.2281 83.1683 96.9724 77.384 96.9724 70.55C96.9724 63.6713 99.2281 57.9093 103.739 53.264C108.295 48.574 114.013 46.229 120.891 46.229C127.77 46.229 133.487 48.574 138.043 53.264C142.599 57.9093 144.877 63.6713 144.877 70.55C144.877 77.4287 142.599 83.213 138.043 87.903ZM194.985 94.871C188.061 94.871 182.255 92.593 177.565 88.037C172.919 83.3917 170.597 77.5627 170.597 70.55C170.597 63.4927 172.942 57.686 177.632 53.13C182.277 48.5293 188.151 46.229 195.253 46.229C200.97 46.229 205.794 47.569 209.725 50.249V57.552C205.437 54.604 200.769 53.13 195.722 53.13C190.585 53.13 186.386 54.7603 183.126 58.021C179.82 61.3263 178.168 65.525 178.168 70.617C178.168 75.7983 179.776 79.997 182.992 83.213C186.297 86.3843 190.295 87.97 194.985 87.97C199.764 87.97 203.538 86.6523 206.308 84.017V66.932H213.678V87.032C211.712 89.3547 209.055 91.253 205.705 92.727C202.399 94.1563 198.826 94.871 194.985 94.871ZM245.061 94H237.222L257.724 46.832H264.826L285.328 94H277.422L272.33 82.342H250.086L245.061 94ZM261.208 56.145L252.632 75.843H269.784L261.208 56.145Z" fill="white"/>
</g>
<defs>
<filter id="filter0_d" x="-15.928" y="0.229004" width="351.256" height="148.642" filterUnits="userSpaceOnUse" color-interpolation-filters="sRGB">
<feFlood flood-opacity="0" result="BackgroundImageFix"/>
<feColorMatrix in="SourceAlpha" type="matrix" values="0 0 0 0 0 0 0 0 0 0 0 0 0 0 0 0 0 0 127 0"/>
<feOffset dy="4"/>
<feGaussianBlur stdDeviation="25"/>
<feColorMatrix type="matrix" values="0 0 0 0 0.513726 0 0 0 0 0.45098 0 0 0 0 0.631373 0 0 0 0.6 0"/>
<feBlend mode="normal" in2="BackgroundImageFix" result="effect1_dropShadow"/>
<feBlend mode="normal" in="SourceGraphic" in2="effect1_dropShadow" result="shape"/>
</filter>
</defs>
</svg>
